<svg height="250pt" preserveAspectRatio="xMidYMid meet" viewBox="0 0 250 250" width="250pt" xmlns="http://www.w3.org/2000/svg"><path d="m1055 2183c-138-16-203-35-293-83-174-92-272-250-275-440-1-113 7-162 41-235 37-77 122-162 210-208 83-43 268-100 402-123 14-3 32-7 40-10s26-8 40-10c55-11 187-56 225-77 53-30 77-77 72-140-8-88-68-138-170-143-124-5-222 29-281 98-31 36-42 60-61 133-2 6-98 9-266 9-145-1-267-2-270-3-16-3 39-179 78-251 138-252 417-382 802-375 480 9 748 271 676 660-14 72-53 144-112 206-105 111-189 148-530 234-117 30-238 65-270 79-103 43-139 103-114 188 23 75 88 109 203 104 132-5 221-66 269-183l21-53h259 259l-5 29c-24 135-100 277-204 381-104 102-235 175-354 195-17 4-48 10-67 14s-62 9-95 10-76 3-95 4-80-3-135-10z" transform="matrix(.1 0 0 -.1 0 250)"/></svg>